<?xml version="1.0" encoding="UTF-8" standalone="no"?>
<!-- Created with Inkscape (http://www.inkscape.org/) -->

<svg
   xmlns:dc="http://purl.org/dc/elements/1.1/"
   xmlns:cc="http://creativecommons.org/ns#"
   xmlns:rdf="http://www.w3.org/1999/02/22-rdf-syntax-ns#"
   xmlns:svg="http://www.w3.org/2000/svg"
   xmlns="http://www.w3.org/2000/svg"
   xmlns:xlink="http://www.w3.org/1999/xlink"
   xmlns:sodipodi="http://sodipodi.sourceforge.net/DTD/sodipodi-0.dtd"
   xmlns:inkscape="http://www.inkscape.org/namespaces/inkscape"
   width="359.92419"
   height="324.88348"
   id="svg2"
   version="1.1"
   inkscape:version="0.48.2 r9819"
   sodipodi:docname="possibleBZoblique.svg">
  <defs
     id="defs4">
    <clipPath
       id="clipPath3057"
       clipPathUnits="userSpaceOnUse">
      <path
         id="path3059"
         d="m 80.641,228.961 156.52,0 0,-156.52 -156.52,0 0,156.52 z"
         inkscape:connector-curvature="0" />
    </clipPath>
  </defs>
  <sodipodi:namedview
     id="base"
     pagecolor="#ffffff"
     bordercolor="#666666"
     borderopacity="1.0"
     inkscape:pageopacity="0.0"
     inkscape:pageshadow="2"
     inkscape:zoom="1.3305556"
     inkscape:cx="180"
     inkscape:cy="215.04905"
     inkscape:document-units="px"
     inkscape:current-layer="layer1"
     showgrid="false"
     units="in"
     inkscape:snap-midpoints="true"
     showguides="true"
     inkscape:guide-bbox="true"
     inkscape:snap-object-midpoints="true"
     inkscape:window-width="1279"
     inkscape:window-height="697"
     inkscape:window-x="0"
     inkscape:window-y="0"
     inkscape:window-maximized="0"
     fit-margin-top="0"
     fit-margin-left="0"
     fit-margin-right="0"
     fit-margin-bottom="0" />
  <metadata
     id="metadata7">
    <rdf:RDF>
      <cc:Work
         rdf:about="">
        <dc:format>image/svg+xml</dc:format>
        <dc:type
           rdf:resource="http://purl.org/dc/dcmitype/StillImage" />
        <dc:title />
      </cc:Work>
    </rdf:RDF>
  </metadata>
  <g
     inkscape:label="Layer 1"
     inkscape:groupmode="layer"
     id="layer1"
     transform="translate(-196.5394,-620.0543)">
    <text
       xml:space="preserve"
       style="font-size:40px;font-style:normal;font-weight:normal;line-height:125%;letter-spacing:0px;word-spacing:0px;fill:#000000;fill-opacity:1;stroke:none;font-family:Sans"
       x="297.88733"
       y="104.71831"
       id="text4087"
       sodipodi:linespacing="125%"
       transform="translate(0,692.35975)"><tspan
         sodipodi:role="line"
         id="tspan4089"
         x="297.88733"
         y="104.71831" /></text>
    <g
       id="g3027"
       transform="matrix(1.963513,0,0,1.963513,-189.36827,-910.45983)">
      <path
         id="path3061"
         style="fill:none;stroke:#000000;stroke-width:0.9375;stroke-linecap:round;stroke-linejoin:round;stroke-miterlimit:10;stroke-opacity:1;stroke-dasharray:none"
         d="m 288.1894,862.20965 0,0"
         inkscape:connector-curvature="0" />
      <path
         id="path3063"
         style="fill:#000000;fill-opacity:1;fill-rule:nonzero;stroke:none"
         d="m 203.2919,941.56465 c 0,4.4975 -6.7525,4.4975 -6.7525,0 0,-4.50125 6.7525,-4.50125 6.7525,0"
         inkscape:connector-curvature="0" />
      <path
         id="path3069"
         style="fill:#000000;fill-opacity:1;fill-rule:nonzero;stroke:none"
         d="m 215.53315,782.8534 c 0,4.4975 -6.7475,4.4975 -6.7475,0 0,-4.50125 6.7475,-4.50125 6.7475,0"
         inkscape:connector-curvature="0" />
      <path
         id="path3077"
         style="fill:#000000;fill-opacity:1;fill-rule:nonzero;stroke:none"
         d="m 367.5994,941.56465 c 0,4.4975 -6.74875,4.4975 -6.74875,0 0,-4.50125 6.74875,-4.50125 6.74875,0"
         inkscape:connector-curvature="0" />
      <path
         id="path3079"
         style="fill:#000000;fill-opacity:1;fill-rule:nonzero;stroke:none"
         d="m 346.3344,862.20965 c 0,4.49625 -6.7475,4.49625 -6.7475,0 0,-4.5025 6.7475,-4.5025 6.7475,0"
         inkscape:connector-curvature="0" />
      <path
         id="path3083"
         style="fill:#000000;fill-opacity:1;fill-rule:nonzero;stroke:none"
         d="m 379.84565,782.8534 c 0,4.4975 -6.75375,4.4975 -6.75375,0 0,-4.50125 6.75375,-4.50125 6.75375,0"
         inkscape:connector-curvature="0" />
      <path
         transform="translate(0,692.35975)"
         inkscape:connector-curvature="0"
         id="path4026"
         d="m 254.6844,249.20349 67.01375,-158.711246 0,0"
         style="fill:none;stroke:#e10000;stroke-width:1;stroke-linecap:butt;stroke-linejoin:miter;stroke-miterlimit:4;stroke-opacity:0.29411765;stroke-dasharray:2, 1;stroke-dashoffset:0" />
      <path
         transform="translate(0,692.35975)"
         inkscape:connector-curvature="0"
         id="path4028"
         d="M 266.92815,90.492244 309.4544,249.20349"
         style="fill:none;stroke:#e10000;stroke-width:1;stroke-linecap:butt;stroke-linejoin:miter;stroke-miterlimit:4;stroke-opacity:0.29411765;stroke-dasharray:2, 1;stroke-dashoffset:0" />
      <path
         transform="translate(0,692.35975)"
         inkscape:connector-curvature="0"
         id="path4030"
         d="m 233.4219,169.84756 109.53875,0"
         style="fill:none;stroke:#e10000;stroke-width:1;stroke-linecap:butt;stroke-linejoin:miter;stroke-miterlimit:4;stroke-opacity:0.29411765;stroke-dasharray:2, 2;stroke-dashoffset:0" />
      <path
         transform="translate(0,692.35975)"
         inkscape:connector-curvature="0"
         id="path3232"
         d="m 260.5962,205.06101 0,-70.72981 33.63878,-8.86427 21.18094,8.85556 0,70.80256 -33.53427,9.07583 z"
         style="fill:none;stroke:#e10000;stroke-width:1px;stroke-linecap:butt;stroke-linejoin:miter;stroke-opacity:1" />
      <path
         transform="translate(0,692.35975)"
         inkscape:connector-curvature="0"
         id="path3256"
         d="m 243.80679,209.58334 33.6088,-79.68428 54.45052,0.0202 -32.92311,79.66413 z"
         style="fill:none;stroke:#0000e1;stroke-width:1px;stroke-linecap:butt;stroke-linejoin:miter;stroke-opacity:1" />
      <text
         style="fill:#00ff00"
         id="text4042"
         y="853.41608"
         x="248.59154"
         xml:space="preserve"><tspan
           y="853.41608"
           x="248.59154"
           id="tspan4044"
           sodipodi:role="line">i<tspan
   id="tspan4065"
   style="font-size:65.00091553%;baseline-shift:sub;fill:#00ff00">1</tspan></tspan></text>
      <text
         style="fill:#00ff00"
         xml:space="preserve"
         x="322.18307"
         y="877.71185"
         id="text4067"><tspan
           sodipodi:role="line"
           id="tspan4069"
           x="322.18307"
           y="877.71185">i'<tspan
   style="font-size:65.00091553%;baseline-shift:sub;fill:#00ff00"
   id="tspan4071">1</tspan></tspan></text>
      <text
         xml:space="preserve"
         x="265.02817"
         y="815.97943"
         id="text4073"><tspan
           style="fill:#00ff00"
           sodipodi:role="line"
           id="tspan4075"
           x="265.02817"
           y="815.97943">i<tspan
   id="tspan4079"
   style="font-size:65.00091553%;baseline-shift:sub;fill:#00ff00">2</tspan></tspan></text>
      <text
         style="fill:#00ff00"
         id="text4081"
         y="914.68365"
         x="305.9859"
         xml:space="preserve"><tspan
           y="914.68365"
           x="305.9859"
           id="tspan4083"
           sodipodi:role="line">i'<tspan
   style="font-size:65.00091553%;baseline-shift:sub;fill:#00ff00"
   id="tspan4085">2</tspan></tspan></text>
      <text
         style="fill:#00ff00"
         id="text4091"
         y="816.25226"
         x="313.15588"
         xml:space="preserve"><tspan
           y="816.25226"
           x="313.15588"
           id="tspan4093"
           sodipodi:role="line">i<tspan
   id="tspan4097"
   style="font-size:65.00091553%;baseline-shift:sub;fill:#00ff00">3</tspan></tspan></text>
      <text
         style="fill:#00ff00"
         xml:space="preserve"
         x="252.22536"
         y="913.27521"
         id="text4099"><tspan
           sodipodi:role="line"
           id="tspan4101"
           x="252.22536"
           y="913.27521">i'<tspan
   style="font-size:65.00091553%;baseline-shift:sub;fill:#00ff00"
   id="tspan4103">3</tspan></tspan></text>
      <path
         transform="matrix(0.70405366,0,0,0.70405366,174.27509,772.07223)"
         d="m 125.04516,127.87196 c 0,1.33543 -1.08258,2.418 -2.418,2.418 -1.33543,0 -2.418,-1.08257 -2.418,-2.418 0,-1.33542 1.08257,-2.418 2.418,-2.418 1.33542,0 2.418,1.08258 2.418,2.418 z"
         sodipodi:ry="2.4180005"
         sodipodi:rx="2.4180005"
         sodipodi:cy="127.87196"
         sodipodi:cx="122.62716"
         id="path4105"
         style="fill:#00ff00;fill-opacity:1;stroke:#00ff00;stroke-width:1;stroke-linecap:round;stroke-linejoin:round;stroke-miterlimit:4;stroke-opacity:1;stroke-dasharray:none;stroke-dashoffset:0"
         sodipodi:type="arc" />
      <path
         id="path3073"
         style="fill:#000000;fill-opacity:1;fill-rule:nonzero;stroke:none"
         d="m 291.5694,862.20965 c 0,4.49625 -6.75375,4.49625 -6.75375,0 0,-4.5025 6.75375,-4.5025 6.75375,0"
         inkscape:connector-curvature="0" />
      <path
         id="path3067"
         style="fill:#000000;fill-opacity:1;fill-rule:nonzero;stroke:none"
         d="m 236.79815,862.20965 c 0,4.49625 -6.7525,4.49625 -6.7525,0 0,-4.5025 6.7525,-4.5025 6.7525,0"
         inkscape:connector-curvature="0" />
      <use
         height="360"
         width="540"
         transform="translate(16.8044,-39.842139)"
         id="use4107"
         xlink:href="#path4105"
         y="0"
         x="0" />
      <use
         height="360"
         width="540"
         transform="translate(27.40986,-0.00435491)"
         id="use4109"
         xlink:href="#use4107"
         y="0"
         x="0" />
      <use
         height="360"
         width="540"
         transform="translate(10.59047,39.82906)"
         id="use4111"
         xlink:href="#use4109"
         y="0"
         x="0" />
      <use
         height="360"
         width="540"
         transform="translate(-16.767135,39.939195)"
         id="use4113"
         xlink:href="#use4111"
         y="0"
         x="0" />
      <use
         height="360"
         width="540"
         transform="translate(-27.384053,-0.09158514)"
         id="use4115"
         xlink:href="#use4113"
         y="0"
         x="0" />
      <path
         id="path3065"
         style="fill:#000000;fill-opacity:1;fill-rule:nonzero;stroke:none"
         d="m 258.05815,941.56465 c 0,4.4975 -6.7475,4.4975 -6.7475,0 0,-4.50125 6.7475,-4.50125 6.7475,0"
         inkscape:connector-curvature="0" />
      <path
         id="path3071"
         style="fill:#000000;fill-opacity:1;fill-rule:nonzero;stroke:none"
         d="m 312.82815,941.56465 c 0,4.4975 -6.7475,4.4975 -6.7475,0 0,-4.50125 6.7475,-4.50125 6.7475,0"
         inkscape:connector-curvature="0" />
      <path
         id="path3075"
         style="fill:#000000;fill-opacity:1;fill-rule:nonzero;stroke:none"
         d="m 270.3044,782.8534 c 0,4.4975 -6.7525,4.4975 -6.7525,0 0,-4.50125 6.7525,-4.50125 6.7525,0"
         inkscape:connector-curvature="0" />
      <path
         id="path3081"
         style="fill:#000000;fill-opacity:1;fill-rule:nonzero;stroke:none"
         d="m 325.0744,782.8534 c 0,4.4975 -6.7525,4.4975 -6.7525,0 0,-4.50125 6.7525,-4.50125 6.7525,0"
         inkscape:connector-curvature="0" />
    </g>
  </g>
</svg>
